<?xml version="1.0" encoding="UTF-8"?>
<svg width="60px" height="60px" viewBox="0 0 60 60" version="1.1" xmlns="http://www.w3.org/2000/svg" xmlns:xlink="http://www.w3.org/1999/xlink">
    <title>logo</title>
    <g id="design" stroke="none" stroke-width="1" fill="none" fill-rule="evenodd">
        <g id="Dashboard---Authenticated-user---No-created-tokens----v2" transform="translate(-60.000000, -20.000000)">
            <g id="logo" transform="translate(60.000000, 20.000000)">
                <rect id="Rectangle" x="0" y="0" width="60" height="60"></rect>
                <path d="M29.2639496,3.16275555 C30.5716537,2.48626694 32.1679586,4.05561336 31.4731565,5.35174529 C31.0696552,6.40829371 29.5396504,6.6892463 28.758148,5.88388855 C27.9301454,5.1109713 28.2001462,3.58329158 29.2639496,3.16275555 M15.1984056,4.66692335 C15.9928081,4.34251834 16.9984112,5.0645427 16.917411,5.92347192 C17.0017113,6.8559131 15.8524077,7.54222314 15.0427051,7.09906804 C13.9699018,6.68686535 14.0926022,4.95918547 15.1984056,4.66692335 M44.0062956,7.12525854 C42.7648918,6.9764489 42.5683911,5.04013792 43.7635949,4.65025667 C44.6905978,4.20174443 45.5411004,5.04281649 45.6767009,5.91454334 C45.4823003,6.65888914 44.8540983,7.34043727 44.0062956,7.12525854 M18.3988156,10.6059159 C19.7269198,9.77258196 21.6220257,11.0136543 21.4177251,12.5440126 C21.3487248,14.0892519 19.2799184,14.9844907 18.1126147,13.939847 C16.9840112,13.1193107 17.1550117,11.2368688 18.3988156,10.6059159 M38.673179,11.4901428 C39.2656808,9.97526069 41.6665883,9.92942732 42.3409904,11.4041308 C43.0075925,12.5517507 42.18769,13.9728827 40.9999862,14.3630616 C39.4267813,14.6544309 37.9324767,12.9672272 38.673179,11.4901428 M27.5701443,14.2770496 C27.5572442,12.9749653 28.752748,12.0047265 30.0001519,11.916036 C30.8275545,12.0806194 31.7293573,12.4303221 32.0842584,13.2585965 C32.7457605,14.4011569 32.1583586,15.9743724 30.9631549,16.4987775 C30.4165532,16.8026468 29.7703512,16.6886586 29.1751493,16.6532419 C28.2652464,16.2100868 27.4990441,15.3410385 27.5701443,14.2770496 M6.65257891,16.1743725 C7.8657827,15.434491 9.50258782,16.7847896 9.04328638,18.0922311 C8.79038559,19.2231843 7.2579808,19.6833037 6.38197807,18.9612794 C5.44687514,18.2847908 5.59507561,16.6583014 6.65257891,16.1743725 M51.5702193,16.1719916 C52.5995225,15.3791338 54.2981278,16.2886583 54.1754274,17.577945 C54.2444276,18.7535411 52.775923,19.6401489 51.7541199,19.0347913 C50.6288163,18.5330052 50.513916,16.8154444 51.5702193,16.1719916 M33.4525627,18.5127671 C35.151168,17.9074095 37.1686743,18.6318148 38.1367773,20.1341969 C39.4138813,21.9708054 38.7343792,24.7678314 36.752573,25.8217012 C34.6990666,27.0681307 31.7005572,26.0115823 30.9421548,23.7365806 C30.0811521,21.6999719 31.335456,19.1511605 33.4525627,18.5127671 M23.4865315,18.7130649 C25.3690374,17.8315166 27.9025453,18.5711005 28.8118482,20.4815186 C29.8819515,22.3410438 29.0545489,24.9303315 27.1414429,25.8904513 C25.225937,26.9696187 22.5235285,26.1514634 21.5965256,24.1550333 C20.5570224,22.2243771 21.4801252,19.6020537 23.4865315,18.7130649 M13.5076003,22.0975913 C13.6507008,20.8943165 14.7949044,20.1112802 15.949308,20.0303278 C17.1931118,20.1791374 18.186715,21.1374715 18.3220154,22.386282 C18.2404151,23.6225924 17.2774121,24.8309267 15.956808,24.8234862 C14.5039034,24.9475934 13.2300995,23.5136638 13.5076003,22.0975913 M42.9820924,20.2919351 C44.4736971,19.430625 46.5449036,20.684495 46.4786034,22.3844962 C46.5809037,24.1856881 44.2885965,25.4550343 42.8032919,24.3984859 C41.2603871,23.5187233 41.3806874,21.0410428 42.9820924,20.2919351 M19.4308188,26.6401542 C21.1753243,26.1639634 23.1700305,26.9797378 24.0256332,28.5705128 C24.9628361,30.1717045 24.5797349,32.3961109 23.1241304,33.5705166 C21.2572245,35.2931369 17.8141138,34.6014697 16.8205107,32.2505751 C15.6787071,30.095514 17.0656115,27.2074165 19.4308188,26.6401542 M38.3335779,26.6312256 C40.0294832,26.1499753 42.0217894,26.7984877 42.9334923,28.3312269 C44.1388961,30.0842044 43.5634943,32.6987897 41.7688886,33.8288501 C39.8890828,35.1410535 36.9772737,34.4520649 35.9428704,32.4002776 C34.6888665,30.2779546 35.9506705,27.2785475 38.3335779,26.6312256 M8.21048378,28.6312271 C9.71738849,28.0657505 11.3877937,29.7154541 10.7772918,31.1975981 C10.4043906,32.5478968 8.48618464,33.0470043 7.49528154,32.0514678 C6.33577792,31.1166457 6.76507926,29.0365846 8.21048378,28.6312271 M49.0556114,30.7821216 C49.0121113,29.5434302 49.9256141,28.4464056 51.2060181,28.3779531 C52.2380214,28.5401556 53.2415245,29.3660491 53.1599242,30.4806333 C53.2544245,31.9526582 51.466419,32.9532542 50.202215,32.261587 C49.6097131,31.9627773 49.3058122,31.3598006 49.0556114,30.7821216 M0.801060625,29.358311 C1.70766346,28.9657512 2.82906696,29.7452161 2.62206632,30.7440264 C2.57346616,31.8749796 0.890460905,32.3098013 0.272158973,31.3648602 C-0.274142734,30.7086097 0.0528582874,29.6967041 0.801060625,29.358311 Z M57.9641393,29.335692 C58.6025413,28.8847988 59.6267445,29.2089061 59.8796452,29.9487877 C60.3086466,30.756824 59.5220441,31.8639677 58.6052413,31.7273604 C57.3182372,31.8437296 56.9018359,29.8978948 57.9641393,29.335692 M24.3550342,34.7645651 C26.7406417,34.1490884 29.3050497,36.1226018 29.3200497,38.5595084 C29.4757502,41.0220103 26.9500423,43.2056429 24.5080347,42.6368925 C22.6204288,42.3354041 21.1393242,40.5315337 21.2005244,38.6392704 C21.1954244,36.8294476 22.5721287,35.1473035 24.3550342,34.7645651 M33.8026638,34.7595056 C36.2239713,34.0880765 38.8648796,36.0970066 38.8264795,38.5901632 C38.9542799,41.0071293 36.5074722,43.11725 34.1164647,42.6377853 C31.8664577,42.3490946 30.2062525,39.8967118 30.8344545,37.7306388 C31.1515555,36.2871853 32.3671593,35.1133749 33.8026638,34.7595056 M15.5869068,36.2595067 C17.2624121,35.9758755 18.833217,37.8303412 18.1537149,39.4086162 C17.6581133,41.0904627 15.1909056,41.5467131 14.1001022,40.1729025 C12.8205982,38.8535563 13.7758012,36.4416497 15.5869068,36.2595067 M43.2934934,36.3336139 C44.7874981,35.7127801 46.6214038,36.9949239 46.5065035,38.6035561 C46.5665036,40.3743908 44.3023966,41.5955226 42.841392,40.5618909 C41.1865868,39.633914 41.4877878,36.9029596 43.2934934,36.3336139 M51.0377176,44.0395721 C50.4527158,42.957726 51.5153191,41.5237964 52.7261229,41.7240942 C53.3288248,41.7139751 53.7503261,42.1851064 54.1361273,42.5803448 C54.2153275,43.2214167 54.348228,43.9862982 53.8118263,44.4803462 C53.083424,45.3949303 51.4334188,45.1339182 51.0377176,44.0395721 M6.6474789,42.0252849 C7.77908243,41.2779629 9.40748752,42.392547 9.15308672,43.705048 C9.0177863,44.8657632 7.5438817,45.5291566 6.57307866,44.8705251 C5.53117541,44.272608 5.56957553,42.5702258 6.6474789,42.0252849 M29.0035488,44.4550486 C30.4849534,43.8065362 32.3722593,45.0860015 32.2318588,46.7047527 C32.3416592,48.4934445 30.0073519,49.7321359 28.5589474,48.658028 C26.9500423,47.7357058 27.2182432,45.0223109 29.0035488,44.4550486 M18.6490164,46.851479 C19.9108203,46.1928475 21.6040256,47.3303484 21.4891253,48.7312423 C21.5275254,49.8815408 20.3959219,50.8618987 19.2517183,50.6919581 C18.3040153,50.67172 17.6860134,49.8288622 17.3821124,49.0273735 C17.3977125,48.1538609 17.7601136,47.1809435 18.6490164,46.851479 M39.6232819,46.8717171 C40.920786,46.0761808 42.7648918,47.2187412 42.6421914,48.7169566 C42.6754915,50.2827316 40.591385,51.2857085 39.3832812,50.2571363 C38.2135775,49.4508857 38.356378,47.512789 39.6232819,46.8717171 M43.2706933,55.8172596 C42.6934915,54.9508899 43.3729937,53.9071391 44.3101966,53.7095199 C45.0637989,53.8616033 45.8606014,54.4238061 45.7022009,55.2904734 C45.5924006,56.463391 43.8631952,56.8232127 43.2706933,55.8172596 M14.3173029,55.064878 C14.5471036,54.3782704 15.1039053,53.6958294 15.9187079,53.8744009 C17.1064116,53.958032 17.4589127,55.7339262 16.4194094,56.281248 C15.4846065,56.9065461 14.4001031,56.0502954 14.3173029,55.064878 M28.2856465,55.8526762 C28.5130472,54.8369017 29.8384514,54.3428537 30.7120541,54.8824374 C31.2892559,55.1282709 31.4578564,55.7690452 31.6060569,56.3136885 C31.5268566,56.5973197 31.4560564,56.8812485 31.3864562,57.1648796 C31.0288551,57.5854156 30.5692536,58.0059517 29.9740518,57.9907731 C28.8679483,58.1193446 27.8701452,56.8788675 28.2856465,55.8526762" id="Shape" fill="#FFFFFF" fill-rule="nonzero"></path>
            </g>
        </g>
    </g>
</svg>